<?xml version="1.0" encoding="UTF-8"?>
<svg xmlns="http://www.w3.org/2000/svg" xmlns:xlink="http://www.w3.org/1999/xlink" viewBox="0 0 48 48" width="48px" height="48px">
<g id="surface76053263">
<path style=" stroke:none;fill-rule:nonzero;fill:rgb(1.176471%,45.09804%,3.137255%);fill-opacity:1;" d="M 23.414062 31.414062 C 23.023438 31.804688 22.511719 32 22 32 C 21.488281 32 20.976562 31.804688 20.585938 31.414062 L 12.585938 23.414062 C 11.804688 22.632812 11.804688 21.367188 12.585938 20.585938 C 13.367188 19.804688 14.632812 19.804688 15.414062 20.585938 L 22 27.171875 L 38.699219 10.472656 C 35.046875 6.503906 29.820312 4 24 4 C 12.953125 4 4 12.953125 4 24 C 4 35.046875 12.953125 44 24 44 C 35.046875 44 44 35.046875 44 24 C 44 20.230469 42.9375 16.714844 41.125 13.703125 Z M 23.414062 31.414062 "/>
</g>
</svg>
